<?xml version="1.0" encoding="UTF-8" standalone="no"?><!DOCTYPE svg PUBLIC "-//W3C//DTD SVG 1.1//EN" "http://www.w3.org/Graphics/SVG/1.1/DTD/svg11.dtd"><svg width="100%" height="100%" viewBox="0 0 1834 442" version="1.1" xmlns="http://www.w3.org/2000/svg" xmlns:xlink="http://www.w3.org/1999/xlink" xml:space="preserve" xmlns:serif="http://www.serif.com/" style="fill-rule:evenodd;clip-rule:evenodd;stroke-linejoin:round;stroke-miterlimit:2;"><g><path d="M2.094,332.221l-0.5,-0c-0.75,-0.246 -1.5,-0.996 -1.5,-1.742l-0,-219.137c-0,-1 0.75,-1.746 1.5,-1.746c1,-0.25 1.75,0.25 2.25,1.246l43.021,122.658c0.25,0.496 0.25,0.996 -0,1.496l-43.271,95.979c-0.25,0.75 -1,1.246 -1.5,1.246Zm1.75,-209.913l-0,199.196l39.271,-87.508l-39.271,-111.688Z" style="fill:#ed8074;fill-rule:nonzero;"/><g><clipPath id="_clip1"><rect x="0.094" y="0" width="384.037" height="441.667"/></clipPath><g clip-path="url(#_clip1)"><path d="M45.115,235.992c-0,-0 -0.25,-0 -0,-0c-1,-0 -1.5,-0.5 -1.75,-1.246l-43.271,-122.658c-0.25,-0.746 -0,-1.746 0.75,-2.242l190.096,-109.446c0.75,-0.5 1.75,-0.25 2.25,0.25c0.5,0.5 0.75,1.496 0.25,2.242l-146.825,232.104c-0.25,0.496 -1,0.996 -1.5,0.996Zm-40.771,-123.655l41.271,117.421l140.82,-222.379l-182.091,104.958Z" style="fill:#ed8074;fill-rule:nonzero;"/><path d="M192.19,441.667c-0.25,-0 -0.75,-0 -1,-0.25l-190.096,-109.442c-0.75,-0.5 -1.25,-1.496 -0.75,-2.496l43.021,-96.229c0.25,-0.5 0.75,-1 1.5,-1c0.75,0 1.25,0.25 1.75,0.75l147.075,205.675c0.5,0.746 0.5,1.746 -0.25,2.242c-0.25,0.5 -0.75,0.75 -1.25,0.75Zm-187.846,-112.188l181.091,104.209l-140.07,-195.951l-41.021,91.742Z" style="fill:#ed8074;fill-rule:nonzero;"/><path d="M192.19,441.667c-0.5,-0 -1,-0.25 -1.5,-0.5c-0.5,-0.746 -0.75,-1.746 -0.25,-2.242l66.283,-93.242c0.25,-0.496 0.75,-0.746 1.25,-0.746l124.062,-16.204c0.75,0 1.75,0.496 2,1.246c0.25,0.746 0,1.746 -0.75,2.242l-190.095,109.446c-0.5,-0.25 -0.75,-0 -1,-0Zm67.033,-93.488l-60.779,85.758l174.587,-100.466l-113.808,14.708Z" style="fill:#ed8074;fill-rule:nonzero;"/><path d="M192.19,441.667c-0.5,-0 -1.25,-0.25 -1.5,-0.75l-147.075,-205.675c-0.5,-0.746 -0.5,-1.742 -0,-2.242c0.5,-0.75 1.5,-0.75 2.25,-0.5l213.108,112.188c0.5,0.249 0.75,0.75 1,1.245c-0,0.5 -0,1 -0.25,1.496l-66.283,93.242c-0.25,0.496 -0.75,0.996 -1.25,0.996Zm-141.071,-202.184l140.821,196.946l63.529,-89.496l-204.35,-107.45Z" style="fill:#ed8074;fill-rule:nonzero;"/></g></g><path d="M45.115,235.992c-0.5,-0 -1.25,-0.25 -1.5,-0.75c-0.5,-0.496 -0.5,-1.496 -0,-1.992l146.825,-232.35c0.5,-0.5 1,-0.75 1.5,-0.75c0.5,0 1.25,0.25 1.5,0.75l128.816,163.042c0.5,0.5 0.5,1.25 0.25,1.745c-0.25,0.501 -0.754,1 -1.254,1.246l-275.637,69.059l-0.5,-0Zm147.075,-230.854l-143.075,225.866l268.637,-67.062l-125.562,-158.804Z" style="fill:#ed8074;fill-rule:nonzero;"/><path d="M258.223,348.179c-0.25,0 -0.5,0 -1,-0.25l-213.108,-112.187c-0.75,-0.25 -1,-0.996 -1,-1.996c-0,-0.746 0.75,-1.496 1.5,-1.496l275.887,-68.804c0.75,-0.25 1.25,-0 1.754,0.496c0.5,0.5 0.5,1.25 0.5,1.995l-62.533,181.242c-0.25,0.5 -0.5,1 -1,1.25c-0.5,-0.25 -0.75,-0.25 -1,-0.25Zm-207.854,-113.433l206.854,108.946l60.779,-175.759l-267.633,66.813Z" style="fill:#ed8074;fill-rule:nonzero;"/><path d="M258.223,348.179c-0.5,0 -1,-0.25 -1.5,-0.75c-0.5,-0.496 -0.5,-1.246 -0.25,-1.746l62.529,-181.241c0.25,-0.746 1,-1.246 1.75,-1.246c0.75,-0 1.504,0.5 1.754,1.246l61.279,165.037c0.25,0.5 0.25,1.246 -0.25,1.496c-0.25,0.5 -0.75,0.75 -1.25,1l-124.062,16.204Zm62.779,-177.504l-60.029,173.512l118.558,-15.454l-58.529,-158.058Z" style="fill:#ed8074;fill-rule:nonzero;"/><path d="M321.002,166.933c-0.25,0 -0.25,0 0,0c-0.75,0 -1.25,-0.246 -1.5,-0.745l-128.812,-163.046c-0.5,-0.746 -0.5,-1.746 -0,-2.492c0.5,-0.75 1.5,-0.75 2.25,-0.5l190.095,109.696c0.5,0.246 0.75,0.746 1,1.496c0.25,0.746 -0.25,1.246 -0.75,1.496l-61.279,53.35c-0.254,0.745 -0.754,0.745 -1.004,0.745Zm-121.308,-158.304l121.558,153.817l57.779,-50.358l-179.337,-103.459Z" style="fill:#ed8074;fill-rule:nonzero;"/><path d="M382.285,332.221c-0.75,-0 -1.5,-0.496 -1.75,-1.246l-61.283,-165.038c-0.25,-0.745 0,-1.495 0.5,-1.995l61.283,-53.35c0.5,-0.5 1.25,-0.5 2,-0.25c0.75,0.25 1,1 1,1.746l0,218.637c0,1 -0.75,1.746 -1.5,1.746c0,-0.25 -0.25,-0.25 -0.25,-0.25Zm-59.279,-166.534l57.279,154.071l0,-203.929l-57.279,49.858Z" style="fill:#ed8074;fill-rule:nonzero;"/><rect x="450.598" y="0" width="13.296" height="441.667" style="fill:#1d7a8c;fill-rule:nonzero;"/><path d="M534.423,90.383l-4.063,-3.829c9.317,-10.45 18.767,-17.021 28.355,-19.721l-0,-54.212c-0,-2.638 -0.346,-4.392 -1.034,-5.267c-0.708,-0.871 -2.083,-1.308 -4.125,-1.308l-12.1,-0l0.438,-6.046l42.762,0.904l-0.437,6.013l-18.034,-0.434l0,59.259c0.584,-0.146 1.571,-0.221 2.967,-0.221c6.025,-0 12.442,1.091 19.258,3.275c6.792,2.2 12.771,4.608 17.942,7.225c5.167,2.637 11.013,5.05 17.533,7.229c6.525,2.204 12.496,3.304 17.913,3.304c3.083,0 6.087,-0.221 9.004,-0.654l0,-73.279c0,-2.638 -0.346,-4.392 -1.033,-5.267c-0.688,-0.871 -2.063,-1.308 -4.125,-1.308l-12.192,-0l0.438,-6.046l42.854,0.904l-0.563,6.013l-17.908,-0.434l-0,77.638c8.062,-2.617 16.304,-8.742 24.725,-18.379l4.096,3.396c-8.296,10.654 -17.904,17.666 -28.821,21.029l-0,45.766c-0,7.459 -2.188,11.884 -6.567,13.275l25.038,0.434l-0.563,6.016l-42.729,-0.875l0.438,-6.012l5.5,-0c4.17,-0 7.116,-0.988 8.85,-2.958c1.708,-1.975 2.562,-5.338 2.562,-10.096l0,-43.9c-2.917,0.437 -5.846,0.654 -8.783,0.654c-4.9,-0 -9.996,-0.738 -15.288,-2.208c-5.271,-1.455 -10.212,-3.221 -14.816,-5.301c-4.625,-2.075 -9.213,-4.141 -13.755,-6.2c-4.541,-2.033 -9.333,-3.787 -14.379,-5.262c-5.062,-1.454 -9.866,-2.183 -14.408,-2.183c-1.542,-0 -2.604,0.075 -3.188,0.22l0,64.396c0,7.459 -2.158,11.884 -6.47,13.275l24.941,0.434l-0.437,6.016l-42.763,-0.875l0.438,-6.012l5.408,-0c4.171,-0 7.117,-0.988 8.846,-2.958c1.708,-1.975 2.567,-5.338 2.567,-10.096l-0,-62.871c-8.421,2.554 -16.517,8.4 -24.292,17.537Zm267.858,51.471c-8.879,-10.075 -13.316,-23.542 -13.316,-40.408c-0,-16.867 4.416,-30.554 13.254,-41.063c8.812,-10.533 20.225,-15.796 34.229,-15.796c15.317,0 26.6,4.496 33.85,13.488c6.879,8.537 10.317,20.4 10.317,35.583l-0,2.304l-84.18,-1.091c-0.145,1.683 -0.22,3.8 -0.22,6.358c-0,15.325 3.866,27.375 11.6,36.138c7.729,8.766 17.97,13.15 30.725,13.15c7.754,-0 14.379,-1.642 19.883,-4.925c5.5,-3.3 10.408,-8.309 14.721,-15.017l5.596,3.617c-4.688,7.6 -10.213,13.304 -16.567,17.104c-6.375,3.779 -14.254,5.671 -23.633,5.671c-15.317,-0 -27.4,-5.038 -36.259,-15.113Zm-5.187,-52.125l76.271,0.875c-0.355,-12.567 -3.575,-22.279 -9.659,-29.133c-6.087,-6.875 -15.246,-10.313 -27.479,-10.313c-10.042,0 -18.629,3.471 -25.758,10.409c-7.146,6.937 -11.604,16.325 -13.375,28.162Zm210.15,52.125c-8.854,-10.075 -13.284,-23.542 -13.284,-40.408c0,-16.867 4.409,-30.554 13.221,-41.063c8.838,-10.533 20.246,-15.796 34.229,-15.796c15.317,0 26.6,4.496 33.855,13.488c6.895,8.537 10.345,20.4 10.345,35.583l0,2.304l-84.179,-1.091c-0.146,1.683 -0.221,3.8 -0.221,6.358c0,15.325 3.859,27.375 11.567,36.138c7.733,8.766 17.975,13.15 30.729,13.15c7.771,-0 14.4,-1.642 19.879,-4.925c5.5,-3.3 10.421,-8.309 14.755,-15.017l5.595,3.617c-4.687,7.6 -10.22,13.304 -16.6,17.104c-6.375,3.779 -14.254,5.671 -23.629,5.671c-15.316,-0 -27.404,-5.038 -36.262,-15.113Zm-5.159,-52.125l76.271,0.875c-0.375,-12.567 -3.604,-22.279 -9.687,-29.133c-6.088,-6.875 -15.246,-10.313 -27.479,-10.313c-10.021,0 -18.609,3.471 -25.755,10.409c-7.15,6.937 -11.6,16.325 -13.35,28.162Zm232.442,65.929l-38.7,-0.875l0.25,-5.575l5.379,0c4.167,0 7.117,-1.008 8.846,-3.025c1.708,-2.012 2.563,-5.429 2.563,-10.25l-0,-78.075c-0,-2.054 -0.305,-3.425 -0.909,-4.112c-0.625,-0.704 -1.966,-1.059 -4.029,-1.059l-12.1,0l0.25,-5.795l22.946,0.654l-0,18.412c11.879,-14.25 26.933,-21.371 45.167,-21.371l-0.875,26.513l-6.034,0l0.221,-19.721c-13.775,0.954 -26.237,7.746 -37.387,20.375l-0,64.617c-0,7.521 -2.196,11.871 -6.592,13.054l21.442,0.654l-0.438,5.579Zm172.113,0l-37.575,-0.875l0.216,-5.575l5.379,0c4.167,0 7.117,-1.008 8.846,-3.025c1.729,-2.012 2.596,-5.429 2.596,-10.25l0,-78.075c0,-1.975 -0.292,-3.325 -0.875,-4.05c-0.604,-0.745 -1.742,-1.121 -3.408,-1.121l-12.754,0l0.216,-5.795l24.071,0.654l0,88.825c0,7.521 -2.2,11.871 -6.596,13.054l20.321,0.654l-0.437,5.579Zm-23.196,-142.383c-0,-3.717 1.804,-5.579 5.408,-5.579c3.729,-0 5.596,1.862 5.596,5.579c-0,3.571 -1.867,5.358 -5.596,5.358c-3.604,0 -5.408,-1.787 -5.408,-5.358Zm167.516,142.383l-36.604,-0.875l0.217,-5.575l5.379,0c4.188,0 7.138,-1.008 8.846,-3.025c1.729,-2.012 2.592,-5.429 2.592,-10.25l-0,-77.858c-0,-2.117 -0.363,-3.542 -1.092,-4.267c-0.729,-0.745 -2.083,-1.121 -4.063,-1.121l-11.879,0l0.217,-5.795l22.975,0.654l-0,18.196c10.692,-14.105 23.654,-21.155 38.887,-21.155c12.838,0 21.817,3.175 26.946,9.534c5.125,6.354 7.688,16.137 7.688,29.346l-0,52.904c-0,7.521 -2.167,11.871 -6.5,13.054l19.35,0.654l-0.438,5.579l-36.7,-0.875l0.221,-5.575l5.375,0c4.188,0 7.158,-1.008 8.908,-3.025c1.75,-2.012 2.625,-5.429 2.625,-10.25l0,-51.812c0,-11.463 -2.208,-19.783 -6.625,-24.954c-4.437,-5.192 -11.825,-7.788 -22.162,-7.788c-7.754,0 -14.496,1.734 -20.225,5.2c-5.708,3.471 -11.129,8.454 -16.254,14.958l-0,64.834c-0,7.521 -2.2,11.871 -6.596,13.054l19.442,0.654l-0.53,5.579Zm177.705,27.167c-0,-14.604 7.658,-25.808 22.975,-33.617c-10.63,-1.391 -15.942,-6.179 -15.942,-14.362c-0,-7.438 5.242,-14.479 15.725,-21.125c-5.796,-3.158 -10.121,-7.488 -12.975,-12.992c-2.854,-5.504 -4.279,-11.654 -4.279,-18.446c-0,-10.966 3.479,-19.991 10.437,-27.075c6.963,-7.079 17.254,-10.621 30.884,-10.621c11.566,0 20.945,2.855 28.133,8.567c9.379,-5.712 19.308,-8.567 29.792,-8.567l-0.438,6.355c-9.525,-0 -17.954,1.941 -25.292,5.825c5.859,6.483 8.788,14.696 8.788,24.646c-0,5.108 -0.825,9.866 -2.471,14.27c-1.646,4.421 -4.083,8.388 -7.317,11.9c-3.208,3.509 -7.52,6.263 -12.937,8.255c-5.442,2.016 -11.671,3.025 -18.696,3.025c-7.187,-0 -13.567,-1.03 -19.129,-3.084c-8.858,5.625 -13.283,11.579 -13.283,17.85c-0,6.5 5.633,9.75 16.908,9.75l30.446,0c4.983,0 9.4,0.263 13.254,0.779c3.833,0.521 7.462,1.454 10.879,2.805c3.396,1.35 6.2,3.116 8.408,5.299c2.188,2.2 3.909,5.013 5.159,8.442c1.25,3.425 1.875,7.446 1.875,12.058c-0,8.017 -2.792,15.13 -8.379,21.342c-5.563,6.209 -12.921,10.925 -22.067,14.142c-9.171,3.2 -19.275,4.8 -30.321,4.8c-12.317,-0 -22.079,-2.658 -29.292,-7.975c-7.229,-5.338 -10.845,-12.754 -10.845,-22.246Zm7.033,-1.529c-0,7.812 3.021,13.979 9.067,18.508c6.041,4.529 14.491,6.792 25.35,6.792c15.379,-0 27.925,-3.179 37.633,-9.534c9.712,-6.354 14.567,-14.312 14.567,-23.866c-0,-4.754 -0.771,-8.721 -2.313,-11.9c-1.542,-3.179 -3.883,-5.588 -7.033,-7.229c-3.146,-1.642 -6.646,-2.792 -10.5,-3.459c-3.838,-0.641 -8.546,-0.966 -14.129,-0.966l-29.884,-0c-7.775,3.95 -13.504,8.404 -17.196,13.366c-3.708,4.967 -5.562,11.063 -5.562,18.288Zm5.625,-99.229c-0,8.6 2.762,15.837 8.287,21.716c5.521,5.875 14.075,8.817 25.663,8.817c6.083,0 11.379,-0.854 15.879,-2.554c4.5,-1.725 8.033,-4.084 10.596,-7.075c2.562,-2.992 4.471,-6.271 5.721,-9.846c1.25,-3.592 1.875,-7.496 1.875,-11.712c-0,-4.03 -0.625,-7.78 -1.875,-11.246c-1.25,-3.471 -3.179,-6.68 -5.784,-9.63c-2.583,-2.97 -6.137,-5.308 -10.658,-7.008c-4.5,-1.725 -9.754,-2.587 -15.754,-2.587c-6.088,-0 -11.379,0.862 -15.879,2.587c-4.504,1.7 -8.034,4.058 -10.6,7.071c-2.563,2.992 -4.446,6.271 -5.654,9.846c-1.209,3.571 -1.817,7.446 -1.817,11.621Z" style="fill:#1d7a8c;fill-rule:nonzero;"/><path d="M565.215,384.058l-34.855,-0.654l0.438,-6.012l5.408,-0c4.167,-0 7.117,-0.988 8.846,-2.959c1.708,-1.975 2.563,-5.337 2.563,-10.096l-0,-123.095c-0,-2.638 -0.342,-4.392 -1.03,-5.267c-0.708,-0.871 -2.083,-1.308 -4.129,-1.308l-12.096,-0l0.438,-6.042l38.042,0.683c29.675,0.646 52.016,7.563 67.02,20.75c15.025,13.171 22.538,31.8 22.538,55.896c-0,11.609 -2,22.242 -6.004,31.9c-3.979,9.638 -9.804,17.959 -17.471,24.959c-7.65,7.02 -17.404,12.42 -29.258,16.2c-10.859,3.45 -23.03,5.129 -36.513,5.045l-3.937,0Zm-16.6,-6.229l18.258,0.217l3.5,-0c15.754,-0.083 29.558,-2.825 41.417,-8.225c12.754,-5.838 22.433,-14.238 29.041,-25.204c6.584,-10.946 9.875,-23.763 9.875,-38.446c0,-22.767 -7.271,-40.171 -21.816,-52.217c-14.546,-12.066 -34.855,-18.279 -60.925,-18.633l-12.88,-0.217l0,129.454c0,7.455 -2.154,11.88 -6.47,13.271Zm235.754,-7.354c-8.875,-10.071 -13.317,-23.542 -13.317,-40.408c0,-16.867 4.421,-30.555 13.254,-41.063c8.838,-10.529 20.246,-15.796 34.229,-15.796c15.317,0 26.6,4.496 33.855,13.492c6.875,8.533 10.312,20.396 10.312,35.579l0,2.304l-84.179,-1.091c-0.146,1.683 -0.217,3.804 -0.217,6.358c0,15.329 3.867,27.375 11.596,36.142c7.733,8.762 17.975,13.146 30.729,13.146c7.75,-0 14.379,-1.642 19.879,-4.921c5.5,-3.305 10.409,-8.309 14.721,-15.021l5.629,3.617c-4.687,7.6 -10.22,13.304 -16.6,17.104c-6.375,3.779 -14.254,5.671 -23.629,5.671c-15.316,-0 -27.404,-5.038 -36.262,-15.113Zm-5.188,-52.121l76.271,0.871c-0.354,-12.567 -3.575,-22.275 -9.658,-29.129c-6.088,-6.875 -15.246,-10.313 -27.479,-10.313c-10.042,0 -18.63,3.467 -25.755,10.405c-7.15,6.937 -11.608,16.324 -13.379,28.166Zm195.963,42.371l6.812,-1.746c4.25,13.584 15.359,20.375 33.321,20.375c10.4,0 18.233,-2.171 23.508,-6.508c5.271,-4.342 7.909,-9.879 7.909,-16.609c-0,-6.708 -2.45,-11.837 -7.346,-15.391c-4.917,-3.529 -12.504,-6.25 -22.758,-8.163c-13.63,-2.554 -23.338,-6.146 -29.134,-10.779c-5.791,-4.633 -8.687,-11.112 -8.687,-19.442c-0,-8.97 3.354,-16.095 10.062,-21.37c6.713,-5.259 15.6,-7.884 26.667,-7.884c10.687,0 19.025,2.213 25.004,6.638c5.963,4.421 9.6,10.537 10.913,18.35l-6.692,1.742c-1.313,-6.646 -4.646,-11.705 -10,-15.171c-5.358,-3.471 -11.983,-5.204 -19.883,-5.204c-8.438,-0 -15.367,2.016 -20.788,6.045c-5.417,4.009 -8.125,9.409 -8.125,16.2c0,6.855 2.321,11.984 6.971,15.392c4.646,3.383 13.2,6.325 25.662,8.817c12.317,2.47 21.255,5.941 26.821,10.404c5.563,4.446 8.346,10.908 8.346,19.379c0,8.975 -3.333,16.183 -10.004,21.625c-6.667,5.442 -16.408,8.163 -29.225,8.163c-21.55,-0 -34.667,-8.288 -39.354,-24.863Zm225.75,23.554l-37.575,-0.875l0.221,-5.575l5.375,0c4.187,0 7.137,-1.008 8.845,-3.021c1.73,-2.016 2.596,-5.433 2.596,-10.25l0,-78.079c0,-1.971 -0.291,-3.321 -0.875,-4.05c-0.583,-0.746 -1.721,-1.121 -3.408,-1.121l-12.754,0l0.221,-5.795l24.066,0.654l0,88.825c0,7.52 -2.196,11.87 -6.596,13.054l20.321,0.654l-0.437,5.579Zm-23.196,-142.383c-0,-3.717 1.804,-5.575 5.408,-5.575c3.729,-0 5.596,1.858 5.596,5.575c0,3.571 -1.867,5.358 -5.596,5.358c-3.604,0 -5.408,-1.787 -5.408,-5.358Zm130.379,169.55c0,-14.6 7.65,-25.808 22.946,-33.617c-10.608,-1.391 -15.913,-6.179 -15.913,-14.362c0,-7.438 5.234,-14.48 15.692,-21.125c-5.771,-3.159 -10.083,-7.488 -12.937,-12.992c-2.88,-5.504 -4.317,-11.65 -4.317,-18.446c-0,-10.966 3.479,-19.991 10.442,-27.071c6.958,-7.083 17.254,-10.625 30.883,-10.625c11.587,0 20.962,2.855 28.133,8.567c9.379,-5.712 19.309,-8.567 29.788,-8.567l-0.438,6.355c-9.521,-0 -17.95,1.941 -25.287,5.825c5.879,6.483 8.816,14.695 8.816,24.645c0,5.109 -0.825,9.867 -2.47,14.271c-1.667,4.425 -4.105,8.392 -7.313,11.9c-3.233,3.513 -7.554,6.263 -12.975,8.258c-5.417,2.013 -11.65,3.021 -18.692,3.021c-7.17,0 -13.533,-1.029 -19.1,-3.083c-8.875,5.629 -13.316,11.579 -13.316,17.85c-0,6.504 5.65,9.754 16.941,9.754l30.417,0c4.979,0 9.4,0.259 13.254,0.779c3.854,0.517 7.479,1.454 10.879,2.804c3.417,1.351 6.221,3.113 8.409,5.296c2.208,2.2 3.925,5.017 5.158,8.442c1.25,3.429 1.875,7.446 1.875,12.058c0,8.017 -2.783,15.129 -8.346,21.342c-5.566,6.208 -12.933,10.925 -22.1,14.146c-9.15,3.196 -19.258,4.796 -30.321,4.796c-12.316,-0 -22.079,-2.659 -29.291,-7.975c-7.209,-5.338 -10.817,-12.754 -10.817,-22.246Zm7.033,-1.525c0,7.808 3.025,13.979 9.067,18.504c6.042,4.529 14.483,6.792 25.321,6.792c15.379,-0 27.925,-3.175 37.633,-9.534c9.713,-6.354 14.567,-14.308 14.567,-23.862c-0,-4.758 -0.771,-8.725 -2.313,-11.904c-1.541,-3.179 -3.887,-5.588 -7.033,-7.229c-3.146,-1.638 -6.646,-2.792 -10.504,-3.459c-3.833,-0.641 -8.533,-0.962 -14.096,-0.962l-29.917,-0c-7.75,3.945 -13.483,8.4 -17.191,13.362c-3.688,4.967 -5.534,11.063 -5.534,18.292Zm5.596,-99.233c0,8.599 2.763,15.837 8.284,21.716c5.545,5.879 14.1,8.817 25.666,8.817c6.084,-0 11.375,-0.85 15.879,-2.554c4.521,-1.725 8.063,-4.084 10.625,-7.075c2.563,-2.988 4.463,-6.271 5.692,-9.842c1.25,-3.596 1.875,-7.5 1.875,-11.717c0,-4.029 -0.625,-7.779 -1.875,-11.246c-1.229,-3.47 -3.15,-6.679 -5.754,-9.629c-2.604,-2.97 -6.158,-5.304 -10.658,-7.008c-4.5,-1.725 -9.763,-2.587 -15.784,-2.587c-6.066,-0 -11.358,0.862 -15.883,2.587c-4.5,1.704 -8.033,4.058 -10.596,7.071c-2.562,2.992 -4.45,6.275 -5.658,9.846c-1.209,3.57 -1.813,7.445 -1.813,11.621Zm228.596,73.591l-36.571,-0.875l0.217,-5.575l5.379,0c4.167,0 7.113,-1.008 8.846,-3.021c1.708,-2.016 2.562,-5.433 2.562,-10.25l0,-77.858c0,-2.121 -0.366,-3.542 -1.095,-4.271c-0.73,-0.746 -2.084,-1.121 -4.063,-1.121l-11.846,0l0.217,-5.795l22.946,0.654l-0,18.195c10.708,-14.104 23.683,-21.154 38.916,-21.154c12.817,0 21.788,3.18 26.913,9.534c5.125,6.354 7.692,16.137 7.692,29.35l-0,52.9c-0,7.52 -2.159,11.87 -6.471,13.054l19.346,0.654l-0.438,5.579l-36.729,-0.875l0.221,-5.575l5.408,0c4.167,0 7.125,-1.008 8.875,-3.021c1.775,-2.016 2.658,-5.433 2.658,-10.25l0,-51.812c0,-11.467 -2.22,-19.788 -6.658,-24.958c-4.437,-5.192 -11.817,-7.788 -22.129,-7.788c-7.775,0 -14.517,1.733 -20.225,5.204c-5.713,3.467 -11.138,8.45 -16.288,14.954l0,64.834c0,7.52 -2.187,11.87 -6.562,13.054l19.442,0.654l-0.563,5.579Z" style="fill:#1d7a8c;fill-rule:nonzero;"/></g></svg>